PathFileType	3	(X/Y/Z)	F:\ViconData\AntennenMessung\Messung1\Session1\ID23.trc
DataRate	CameraRate	NumFrames	NumMarkers	Units	OrigDataRate	OrigDataStartFrame	OrigNumFrames
120.0	120.0	4	70	mm	120.0	501	1000	
Frame#	Time	Ashort			Along			Atop			A4			Bshort			Blong			Btop			B4			Cshort			Clong			Ctop			C4			Dshort			Dlong			Dtop			D4			Eshort			Elong			Etop			E4			Fshort			Flong			Ftop			F4			Gshort			Glong			Gtop			G4			Hshort			Hlong			Htop			H4			I1			I2			I3			I4			I5			WandAshort			WandAlong			WandAtop			WandA4			WandA15			WandBshort			WandB4			WandB5			WandBtop			WandBlong			WandCshort			WandClong			WandCtop			WandC4			WandC5			Acenter			Aantenna			Bcenter			Bantenna			Ccenter			Cantenna			Dcenter			Dantenna			Ecenter			Eantenna			Fcenter			Fantenna			Gcenter			Gantenna			Hcenter			Hantenna			Icenter			Iantenna			
		X1	Y1	Z1	X2	Y2	Z2	X3	Y3	Z3	X4	Y4	Z4	X5	Y5	Z5	X6	Y6	Z6	X7	Y7	Z7	X8	Y8	Z8	X9	Y9	Z9	X10	Y10	Z10	X11	Y11	Z11	X12	Y12	Z12	X13	Y13	Z13	X14	Y14	Z14	X15	Y15	Z15	X16	Y16	Z16	X17	Y17	Z17	X18	Y18	Z18	X19	Y19	Z19	X20	Y20	Z20	X21	Y21	Z21	X22	Y22	Z22	X23	Y23	Z23	X24	Y24	Z24	X25	Y25	Z25	X26	Y26	Z26	X27	Y27	Z27	X28	Y28	Z28	X29	Y29	Z29	X30	Y30	Z30	X31	Y31	Z31	X32	Y32	Z32	X33	Y33	Z33	X34	Y34	Z34	X35	Y35	Z35	X36	Y36	Z36	X37	Y37	Z37	X38	Y38	Z38	X39	Y39	Z39	X40	Y40	Z40	X41	Y41	Z41	X42	Y42	Z42	X43	Y43	Z43	X44	Y44	Z44	X45	Y45	Z45	X46	Y46	Z46	X47	Y47	Z47	X48	Y48	Z48	X49	Y49	Z49	X50	Y50	Z50	X51	Y51	Z51	X52	Y52	Z52	X53	Y53	Z53	X54	Y54	Z54	X55	Y55	Z55	X56	Y56	Z56	X57	Y57	Z57	X58	Y58	Z58	X59	Y59	Z59	X60	Y60	Z60	X61	Y61	Z61	X62	Y62	Z62	X63	Y63	Z63	X64	Y64	Z64	X65	Y65	Z65	X66	Y66	Z66	X67	Y67	Z67	X68	Y68	Z68	X69	Y69	Z69	X70	Y70	Z70	
501	4.1666667	-1038.1943	214.57022	-1643.9888	-1109.5438	204.04182	-1599.4681	-1063.601	172.94615	-1625.7454	-1054.121	262.39389	-1634.8706	-1352.453	235.42809	1003.3632	-1281.2463	227.48398	1052.0392	-1322.5308	194.04413	1020.821	-1284.4326	287.96463	1052.6008	814.03424	187.73624	1209.3756	892.65009	179.30489	1178.3881	844.50916	145.40971	1198.3782	860.9693	292.49939	1168.4788	1115.8093	209.7094	-1401.6473	1056.3389	194.1077	-1460.2839	1094.985	162.17241	-1423.8109	1069.6926	239.55017	-1426.2496	-1204.7051	1686.0996	-1562.8929	-1129.1168	1688.3938	-1605.9585	-1173.1328	1724.3625	-1581.8796	-1133.9825	1581.1033	-1603.9047	-1239.5697	1699.1121	1119.5775	-1309.3923	1698.9369	1072.0482	-1270.4019	1736.2507	1096.9515	-1245.6438	1592.8916	1110.7913	988.86218	1664.1722	1162.1298	957.36432	1700.4767	1183.87	921.80402	1662.2889	1214.9041	939.81024	1659.4474	1159.7069	999.08655	1668.4561	-1579.3768	1058.9822	1670.2128	-1518.6572	1025.0109	1708.1025	-1551.114	1059.3257	1672.2375	-1585.5046	-231.3792	1638.9252	-185.81805	-228.88953	1638.3628	-270.25735	-229.71161	1675.4658	-223.69672	-196.27197	1638.5007	-221.50676	-278.74799	1639.917	-223.88734																																														-1068.6183	210.08081	-1625.0046	-1073.8394	248.72208	-1624.2339	-1321.0465	231.92426	1024.8322	-1319.5282	270.67801	1028.9357	847.75623	184.11963	1196.0835	851.0105	222.91551	1193.7839	1088.7887	202.62071	-1428.2888	1082.9185	240.94225	-1432.5314	-1171.8492	1687.0968	-1581.6119	-1170.5068	1648.1208	-1581.3323	-1271.1001	1699.033	1098.1143	-1271.8312	1660.0587	1099.332	952.74182	1705.8043	1187.0603	972.77917	1733.9878	1169.027	1026.5634	1669.262	-1551.5217	1028.121	1630.2952	-1551.931	-230.26907	1638.6744	-223.46805	-230.85995	1599.6796	-223.22569
502	4.175	-1038.1946	214.57379	-1643.959	-1109.5316	203.99271	-1599.473	-1063.7341	172.1481	-1625.3177	-1054.1002	262.32791	-1634.9034	-1352.5205	235.39009	1003.249	-1281.3585	227.46693	1052.1461	-1322.4672	194.04356	1020.8463	-1284.4103	287.98752	1052.5814	814.06714	187.772	1209.4363	892.23364	178.68233	1178.8517	844.57874	145.41054	1198.4423	861.05066	292.49402	1168.4181	1115.8794	210.03178	-1401.8239	1056.345	194.13725	-1460.2457	1094.9617	162.16245	-1423.8114	1069.6807	239.53471	-1426.271	-1204.5698	1685.9819	-1563.1371	-1129.1411	1688.3712	-1605.9508	-1173.1356	1724.3492	-1581.869	-1133.9714	1581.0983	-1603.9131	-1239.5862	1699.0997	1119.5676	-1309.3687	1698.8328	1072.0162	-1270.4199	1736.2776	1096.9615	-1245.5342	1592.6981	1110.7294	988.86566	1664.1771	1162.1193	957.29504	1700.5029	1183.9032	921.85626	1662.2825	1214.9382	939.7973	1659.4521	1159.7	999.08789	1668.4546	-1579.3789	1058.9592	1670.2067	-1518.6566	1025.0125	1708.1085	-1551.113	1059.3306	1672.2061	-1585.4054	-231.40594	1638.9058	-185.82137	-228.88795	1638.3567	-270.24805	-229.72115	1675.4777	-223.70297	-196.26907	1638.5269	-221.51376	-278.57101	1639.7527	-223.88417																																														-1068.996	210.00514	-1624.751	-1074.3644	248.62958	-1624.173	-1321.0303	231.88399	1024.8866	-1319.5587	270.63593	1029.0243	848.1308	183.81087	1196.108	851.71649	222.57413	1193.7518	1088.7073	202.77737	-1428.488	1082.8099	241.07584	-1432.8979	-1171.8594	1687.0181	-1581.7035	-1170.5269	1648.0411	-1581.5309	-1271.0647	1698.9792	1098.1173	-1271.7388	1660.0038	1099.3252	952.69647	1705.7939	1187.0762	972.68542	1733.9957	1169.0177	1026.5592	1669.2584	-1551.5171	1028.1106	1630.2915	-1551.9225	-230.28278	1638.6606	-223.48027	-230.87764	1599.666	-223.2444
503	4.1833333	-1038.1813	214.55405	-1643.9675	-1109.5466	204.03639	-1599.486	-1063.8011	172.04459	-1625.2528	-1054.1168	262.39923	-1634.886	-1352.5165	235.21223	1003.3698	-1281.3169	227.50706	1052.1395	-1322.4696	194.09467	1020.7611	-1284.2369	288.06271	1052.4504	813.9967	187.72556	1209.4	892.2876	178.77327	1178.826	844.53705	145.41673	1198.316	861.08417	292.39484	1168.42	1115.8695	210.05014	-1401.8263	1056.3518	194.2012	-1460.2515	1094.9636	162.18578	-1423.781	1069.6907	239.55907	-1426.2516	-1204.6495	1686.0665	-1562.9833	-1129.1172	1688.3667	-1605.9277	-1173.1407	1724.359	-1581.8734	-1133.9882	1581.0778	-1603.8778	-1239.5374	1699.0496	1119.556	-1309.3982	1698.8998	1072.0378	-1270.3776	1736.2185	1096.9352	-1245.5461	1592.7013	1110.7227	988.84631	1664.1617	1162.1217	957.34485	1700.5363	1183.8799	921.90613	1662.259	1214.9701	939.80579	1659.4562	1159.7308	999.09741	1668.4635	-1579.3765	1058.9707	1670.2051	-1518.6741	1025.02	1708.0995	-1551.1195	1059.3226	1672.2047	-1585.3981	-231.38715	1638.8987	-185.81549	-228.89151	1638.3607	-270.24014	-229.71599	1675.4635	-223.69946	-196.189	1638.5621	-221.48962	-278.64386	1639.8029	-223.87836																																														-1069.0627	210.00279	-1624.7192	-1074.417	248.62968	-1624.1763	-1321.178	231.82079	1024.8358	-1319.8512	270.57285	1029.0214	848.06274	183.83022	1196.0967	851.62146	222.60286	1193.8564	1088.7363	202.82484	-1428.4613	1082.8669	241.12747	-1432.8726	-1171.8633	1687.0649	-1581.624	-1170.5282	1648.0886	-1581.3634	-1271.0873	1698.9819	1098.0962	-1271.8303	1660.0078	1099.3115	952.82062	1705.7601	1187.0046	972.83148	1733.9183	1168.9026	1026.5646	1669.2625	-1551.5287	1028.1144	1630.2954	-1551.9393	-230.27371	1638.6587	-223.48141	-230.86462	1599.6638	-223.2504
504	4.1916667	-1038.1812	214.55121	-1643.9629	-1109.5598	204.12918	-1599.5045	-1064.1887	173.06572	-1625.4207	-1054.1155	262.35001	-1634.8635	-1352.4972	235.37878	1003.273	-1281.3297	227.39175	1052.0513	-1322.5414	194.01985	1020.8735	-1284.3496	287.92395	1052.583	814.01947	187.75159	1209.3807	892.27179	178.72882	1178.8096	844.56219	145.369	1198.3881	860.98682	292.47995	1168.453	1115.8257	209.77222	-1401.6625	1056.3451	194.12956	-1460.2386	1094.9983	162.22499	-1423.8152	1069.6711	239.56554	-1426.2682	-1204.6462	1686.0449	-1562.9913	-1129.1104	1688.4034	-1605.9731	-1173.147	1724.3589	-1581.8706	-1133.9789	1581.0902	-1603.8995	-1239.5695	1699.0829	1119.5645	-1308.3966	1699.5514	1070.371	-1270.4241	1736.2783	1096.9565	-1245.5061	1592.678	1110.7178	988.89038	1664.2102	1162.1219	957.28943	1700.5021	1183.7849	921.96301	1662.2798	1214.9938	939.84052	1659.4932	1159.6803	999.09674	1668.4673	-1579.3961	1058.98	1670.2146	-1518.6721	1025.0183	1708.1017	-1551.124	1059.3356	1672.2086	-1585.4034	-231.39536	1638.9049	-185.81213	-228.89983	1638.3591	-270.25372	-229.7099	1675.4685	-223.69281	-196.24625	1638.5322	-221.51268	-278.72366	1639.9021	-223.88673																																														-1069.1292	210.03247	-1624.6868	-1074.2943	248.68129	-1623.9193	-1321.0199	231.84612	1024.8475	-1319.4611	270.60165	1028.9192	848.09039	183.82307	1196.0701	851.64746	222.59016	1193.7332	1088.7789	202.65929	-1428.2977	1082.8854	240.97665	-1432.5458	-1171.8567	1687.0687	-1581.6493	-1170.5081	1648.0927	-1581.4182	-1270.8531	1699.2958	1097.2046	-1271.3057	1660.2992	1097.4662	952.69092	1705.7831	1186.9374	972.59802	1733.9668	1168.7609	1026.5702	1669.2688	-1551.5367	1028.1274	1630.3022	-1551.9512	-230.28236	1638.6615	-223.47176	-230.88889	1599.6669	-223.23759
